<svg width="905" height="942" viewBox="0 0 905 942" fill="none" xmlns="http://www.w3.org/2000/svg">
    <path fill-rule="evenodd" clip-rule="evenodd" d="M847.506 204.702H787.882V0H664.376V113.724H630.306V204.702H532.353V113.724H453.565V204.702L453.565 309.328H398.2V204.702H342.835V113.724H244.882V0H97.9529V204.702H29.8118V470.815H0V941.631H905L905 470.815H847.506V204.702ZM147.89 21.5405H113.318V59.4929H147.89V21.5405ZM147.89 157.964H113.318V195.917H147.89V157.964ZM245.843 145.655H280.414V183.608H245.843V145.655ZM245.843 282.079H280.414V320.031H245.843V282.079ZM147.89 214.38H113.318V252.333H147.89V214.38ZM463.836 145.655H498.408V183.608H463.836V145.655ZM498.408 282.079H463.836V320.031H498.408V282.079ZM452.312 494.408H486.884V532.36H452.312V494.408ZM674.147 145.655H639.575V183.608H674.147V145.655ZM639.575 356.958H674.147V394.911H639.575V356.958ZM771.139 21.5405H736.568V59.4929H771.139V21.5405ZM736.568 470.815H771.139V508.768H736.568V470.815ZM280.414 394.911H245.843V432.863H280.414V394.911ZM113.318 432.863H147.89V470.815H113.318V432.863ZM390.851 356.958H356.28V394.911H390.851V356.958ZM533.94 394.911H568.511V432.863H533.94V394.911ZM674.147 214.38H639.575V252.333H674.147V214.38ZM40.3336 844.662C40.3336 863.129 53.2898 876.7 70.4254 876.923V720.071C53.2898 720.293 40.3336 733.865 40.3336 752.331V844.662ZM75.6497 720.071V751.219H95.2929V720.071H75.6497ZM130.4 752.331C130.4 734.087 117.653 720.516 100.726 720.071V841.103H130.4V752.331ZM143.983 846.665H75.6497V876.923H143.983V846.665ZM191.898 878.035C174.553 877.59 161.806 864.241 161.806 845.775V721.183H191.898V878.035ZM221.99 721.183H252.081V845.775C252.081 864.241 239.125 877.812 221.99 878.035V721.183ZM197.122 846.887H216.765V878.035H197.122V846.887ZM308.404 721.183H279.148V876.923H308.404V721.183ZM369.005 721.183H313.628V752.331H369.005V721.183ZM365.453 783.479H313.628V814.627H365.453V783.479ZM369.005 845.775H313.628V876.923H369.005V845.775ZM452.922 838.433C452.922 834.873 452.713 833.983 452.504 833.093C452.086 831.536 451.25 830.423 449.787 829.311L412.382 798.83C398.798 787.929 392.529 779.029 392.529 767.46V752.331C392.529 734.087 404.65 720.738 421.785 720.071V761.453C421.785 764.568 422.621 766.57 424.92 768.35L461.908 798.385C474.864 808.842 482.178 817.519 482.178 828.866V845.775C482.178 863.796 470.266 877.145 452.922 878.035V838.433ZM452.295 755.668C452.295 752.776 450.414 751.219 448.325 751.219H427.01V720.071H451.25C468.804 720.071 482.178 733.642 482.178 752.331V763.9H452.295V755.668ZM422.83 878.035C405.486 878.035 391.902 864.241 391.902 845.775V833.983H421.785V842.438C421.785 845.107 423.666 846.887 425.756 846.887H447.489V878.035H422.83ZM587.804 721.183H497.947V752.331H587.804V721.183ZM558.339 757.893H527.412V876.923H558.339V757.893ZM638.633 876.923V721.183H607.706V876.923H638.633ZM746.32 721.183L662.732 830.201V876.923H665.866L750.5 767.905V721.183H746.32ZM739.633 721.183H662.732V752.331H715.601L739.633 721.183ZM750.5 845.775H696.794L672.554 876.923H750.5V845.775ZM805.361 876.923V721.183H774.433V876.923H805.361ZM833.363 783.479H810.585V814.627H833.363V876.923H864.291V721.183H833.363V783.479ZM773 568H736V605H773V568ZM114 532H151V569H114V532ZM285 605H248V642H285V605ZM575 550H538V587H575V550Z" fill="white" />
</svg>