<svg width="913" height="950" viewBox="0 0 913 950" fill="none" xmlns="http://www.w3.org/2000/svg">
<g clip-path="url(#clip0_6_2)">
<g filter="url(#filter0_i_6_2)">
<mask id="mask0_6_2" style="mask-type:alpha" maskUnits="userSpaceOnUse" x="4" y="0" width="905" height="942">
<path fill-rule="evenodd" clip-rule="evenodd" d="M851.506 204.702H791.882V0H668.376V113.724H634.306V204.702H536.353V113.724H457.565V204.702V309.328H402.2V204.702H346.835V113.724H248.882V0H101.953V204.702H33.8118V470.815H4V941.631H909V470.815H851.506V204.702ZM151.89 21.5405H117.318V59.4929H151.89V21.5405ZM151.89 157.964H117.318V195.917H151.89V157.964ZM249.843 145.655H284.414V183.608H249.843V145.655ZM249.843 282.079H284.414V320.031H249.843V282.079ZM151.89 214.38H117.318V252.333H151.89V214.38ZM467.836 145.655H502.408V183.608H467.836V145.655ZM502.408 282.079H467.836V320.031H502.408V282.079ZM456.312 494.408H490.884V532.36H456.312V494.408ZM678.147 145.655H643.575V183.608H678.147V145.655ZM643.575 356.958H678.147V394.911H643.575V356.958ZM775.139 21.5405H740.568V59.4929H775.139V21.5405ZM740.568 470.815H775.139V508.768H740.568V470.815ZM284.414 394.911H249.843V432.863H284.414V394.911ZM117.318 432.863H151.89V470.815H117.318V432.863ZM394.851 356.958H360.28V394.911H394.851V356.958ZM537.94 394.911H572.511V432.863H537.94V394.911ZM678.147 214.38H643.575V252.333H678.147V214.38ZM44.3336 844.662C44.3336 863.129 57.2898 876.7 74.4254 876.923V720.071C57.2898 720.293 44.3336 733.865 44.3336 752.331V844.662ZM79.6497 720.071V751.219H99.2929V720.071H79.6497ZM134.4 752.331C134.4 734.087 121.653 720.516 104.726 720.071V841.103H134.4V752.331ZM147.983 846.665H79.6497V876.923H147.983V846.665ZM195.898 878.035C178.553 877.59 165.806 864.241 165.806 845.775V721.183H195.898V878.035ZM225.99 721.183H256.081V845.775C256.081 864.241 243.125 877.812 225.99 878.035V721.183ZM201.122 846.887H220.765V878.035H201.122V846.887ZM312.404 721.183H283.148V876.923H312.404V721.183ZM373.005 721.183H317.628V752.331H373.005V721.183ZM369.453 783.479H317.628V814.627H369.453V783.479ZM373.005 845.775H317.628V876.923H373.005V845.775ZM456.922 838.433C456.922 834.873 456.713 833.983 456.504 833.093C456.086 831.536 455.25 830.423 453.787 829.311L416.382 798.83C402.798 787.929 396.529 779.029 396.529 767.46V752.331C396.529 734.087 408.65 720.738 425.785 720.071V761.453C425.785 764.568 426.621 766.57 428.92 768.35L465.908 798.385C478.864 808.842 486.178 817.519 486.178 828.866V845.775C486.178 863.796 474.266 877.145 456.922 878.035V838.433ZM456.295 755.668C456.295 752.776 454.414 751.219 452.325 751.219H431.01V720.071H455.25C472.804 720.071 486.178 733.642 486.178 752.331V763.9H456.295V755.668ZM426.83 878.035C409.486 878.035 395.902 864.241 395.902 845.775V833.983H425.785V842.438C425.785 845.107 427.666 846.887 429.756 846.887H451.489V878.035H426.83ZM591.804 721.183H501.947V752.331H591.804V721.183ZM562.339 757.893H531.412V876.923H562.339V757.893ZM642.633 876.923V721.183H611.706V876.923H642.633ZM750.32 721.183L666.732 830.201V876.923H669.866L754.5 767.905V721.183H750.32ZM743.633 721.183H666.732V752.331H719.601L743.633 721.183ZM754.5 845.775H700.794L676.554 876.923H754.5V845.775ZM809.361 876.923V721.183H778.433V876.923H809.361ZM837.363 783.479H814.585V814.627H837.363V876.923H868.291V721.183H837.363V783.479ZM777 568H740V605H777V568ZM118 532H155V569H118V532ZM289 605H252V642H289V605ZM579 550H542V587H579V550Z" fill="white"/>
</mask>
<g mask="url(#mask0_6_2)">
<path fill-rule="evenodd" clip-rule="evenodd" d="M851.506 204.702H791.882V0H668.376V113.724H634.306V204.702H536.353V113.724H457.565V204.702V309.328H402.2V204.702H346.835V113.724H248.882V0H101.953V204.702H33.8118V470.815H4V941.631H909V470.815H851.506V204.702ZM151.89 21.5405H117.318V59.4929H151.89V21.5405ZM151.89 157.964H117.318V195.917H151.89V157.964ZM249.843 145.655H284.414V183.608H249.843V145.655ZM249.843 282.079H284.414V320.031H249.843V282.079ZM151.89 214.38H117.318V252.333H151.89V214.38ZM467.836 145.655H502.408V183.608H467.836V145.655ZM502.408 282.079H467.836V320.031H502.408V282.079ZM456.312 494.408H490.884V532.36H456.312V494.408ZM678.147 145.655H643.575V183.608H678.147V145.655ZM643.575 356.958H678.147V394.911H643.575V356.958ZM775.139 21.5405H740.568V59.4929H775.139V21.5405ZM740.568 470.815H775.139V508.768H740.568V470.815ZM284.414 394.911H249.843V432.863H284.414V394.911ZM117.318 432.863H151.89V470.815H117.318V432.863ZM394.851 356.958H360.28V394.911H394.851V356.958ZM537.94 394.911H572.511V432.863H537.94V394.911ZM678.147 214.38H643.575V252.333H678.147V214.38ZM44.3336 844.662C44.3336 863.129 57.2898 876.7 74.4254 876.923V720.071C57.2898 720.293 44.3336 733.865 44.3336 752.331V844.662ZM79.6497 720.071V751.219H99.2929V720.071H79.6497ZM134.4 752.331C134.4 734.087 121.653 720.516 104.726 720.071V841.103H134.4V752.331ZM147.983 846.665H79.6497V876.923H147.983V846.665ZM195.898 878.035C178.553 877.59 165.806 864.241 165.806 845.775V721.183H195.898V878.035ZM225.99 721.183H256.081V845.775C256.081 864.241 243.125 877.812 225.99 878.035V721.183ZM201.122 846.887H220.765V878.035H201.122V846.887ZM312.404 721.183H283.148V876.923H312.404V721.183ZM373.005 721.183H317.628V752.331H373.005V721.183ZM369.453 783.479H317.628V814.627H369.453V783.479ZM373.005 845.775H317.628V876.923H373.005V845.775ZM456.922 838.433C456.922 834.873 456.713 833.983 456.504 833.093C456.086 831.536 455.25 830.423 453.787 829.311L416.382 798.83C402.798 787.929 396.529 779.029 396.529 767.46V752.331C396.529 734.087 408.65 720.738 425.785 720.071V761.453C425.785 764.568 426.621 766.57 428.92 768.35L465.908 798.385C478.864 808.842 486.178 817.519 486.178 828.866V845.775C486.178 863.796 474.266 877.145 456.922 878.035V838.433ZM456.295 755.668C456.295 752.776 454.414 751.219 452.325 751.219H431.01V720.071H455.25C472.804 720.071 486.178 733.642 486.178 752.331V763.9H456.295V755.668ZM426.83 878.035C409.486 878.035 395.902 864.241 395.902 845.775V833.983H425.785V842.438C425.785 845.107 427.666 846.887 429.756 846.887H451.489V878.035H426.83ZM591.804 721.183H501.947V752.331H591.804V721.183ZM562.339 757.893H531.412V876.923H562.339V757.893ZM642.633 876.923V721.183H611.706V876.923H642.633ZM750.32 721.183L666.732 830.201V876.923H669.866L754.5 767.905V721.183H750.32ZM743.633 721.183H666.732V752.331H719.601L743.633 721.183ZM754.5 845.775H700.794L676.554 876.923H754.5V845.775ZM809.361 876.923V721.183H778.433V876.923H809.361ZM837.363 783.479H814.585V814.627H837.363V876.923H868.291V721.183H837.363V783.479ZM777 568H740V605H777V568ZM118 532H155V569H118V532ZM289 605H252V642H289V605ZM579 550H542V587H579V550Z" fill="#202027"/>
</g>
</g>
</g>
<defs>
<filter id="filter0_i_6_2" x="4" y="0" width="905" height="945.631" filterUnits="userSpaceOnUse" color-interpolation-filters="sRGB">
<feFlood flood-opacity="0" result="BackgroundImageFix"/>
<feBlend mode="normal" in="SourceGraphic" in2="BackgroundImageFix" result="shape"/>
<feColorMatrix in="SourceAlpha" type="matrix" values="0 0 0 0 0 0 0 0 0 0 0 0 0 0 0 0 0 0 127 0" result="hardAlpha"/>
<feOffset dy="4"/>
<feGaussianBlur stdDeviation="2"/>
<feComposite in2="hardAlpha" operator="arithmetic" k2="-1" k3="1"/>
<feColorMatrix type="matrix" values="0 0 0 0 0 0 0 0 0 0 0 0 0 0 0 0 0 0 0.25 0"/>
<feBlend mode="normal" in2="shape" result="effect1_innerShadow_6_2"/>
</filter>
<clipPath id="clip0_6_2">
<rect width="913" height="950" fill="white"/>
</clipPath>
</defs>
</svg>
